# xmcd
#
# Track frame offsets:
# 150
# 3744
# 11094
# 17244
# 25569
# 30988
# 34888
# 37528
# 46022
# 52979
# 64379
# 71017
# 79267
# 83017
# 91792
# 97099
# 101028
# 108566
# 113123
# 119723
# 130523
# 136036
# 140255
#
# Disc length: 2034 seconds
#
# Revision: 0
# Processed by: cddbd v1.5.1PL2 Copyright (c) Steve Scherf et al.
# Submitted via: Audion 3.0.2 (http://www.panic.com/audion/)
#
DISCID=2207f017
DTITLE=Tom Curiano - Candy
DYEAR=1900
DGENRE=
TTITLE0=Pez
TTITLE1=Abba Zaba
TTITLE2=Country Candy
TTITLE3=Kiss Mint
TTITLE4=Explodopop
TTITLE5=Bottle Caps #1
TTITLE6=Bottle Caps #2
TTITLE7=Cinnamon Heart
TTITLE8=Awa-Awa
TTITLE9=After Eight
TTITLE10=Caramello
TTITLE11=Double Decker
TTITLE12=Kudos
TTITLE13=Wispa
TTITLE14=Crush
TTITLE15=Gobstopper
TTITLE16=Lumar
TTITLE17=Now and Later
TTITLE18=Rainbow Rocket
TTITLE19=Slurpee
TTITLE20=Magical Elves
TTITLE21=Melty Kiss
TTITLE22=Aero
EXTD=
EXTT0=
EXTT1=
EXTT2=
EXTT3=
EXTT4=
EXTT5=
EXTT6=
EXTT7=
EXTT8=
EXTT9=
EXTT10=
EXTT11=
EXTT12=
EXTT13=
EXTT14=
EXTT15=
EXTT16=
EXTT17=
EXTT18=
EXTT19=
EXTT20=
EXTT21=
EXTT22=
PLAYORDER=
